# xmcd
#
# Track frame offsets:
#	150
#	11557
#	26602
#	43158
#	59326
#	71213
#	87706
#	103389
#	113425
#	127585
#	138386
#	153942
#	165836
#	179175
#
# Disc length: 2526 seconds
# Revision: 0
# Processed by: cddbd v1.5.2PL0 Copyright (c) Steve Scherf et al.
# Submitted via: dBpowerAMP V12.0
#
DISCID=bd09dc0e
DTITLE=Soft Shoe Sam - National Debt
DYEAR=2014
DGENRE=Blues
TTITLE0=Money Don't Last Too Long
TTITLE1=One Kind Favour
TTITLE2=Sam's Shuffle
TTITLE3=Jericho Farm
TTITLE4=Trail Gone Cold
TTITLE5=Riding The Rods
TTITLE6=The Roll Of The Dice
TTITLE7=River Run Dry
TTITLE8=Turn Your Miney Green
TTITLE9=Soft Shoe At The Seways Cafe
TTITLE10=A Few Short Hookers
TTITLE11=Can't Stand To See You Go
TTITLE12=Those \Money Blues Again
TTITLE13=Last Time Around
EXTD=
EXTT0=
EXTT1=
EXTT2=
EXTT3=
EXTT4=
EXTT5=
EXTT6=
EXTT7=
EXTT8=
EXTT9=
EXTT10=
EXTT11=
EXTT12=
EXTT13=
PLAYORDER=
